<?xml version="1.0" encoding="utf-8"?><svg xmlns="http://www.w3.org/2000/svg" xmlns:xlink="http://www.w3.org/1999/xlink"><symbol viewBox="0 0 24 24" id="facebook"><title id="simpleicons-facebook-icon">Facebook icon</title><path d="M22.676 0H1.324C.593 0 0 .593 0 1.324v21.352C0 23.408.593 24 1.324 24h11.494v-9.294H9.689v-3.621h3.129V8.41c0-3.099 1.894-4.785 4.659-4.785 1.325 0 2.464.097 2.796.141v3.24h-1.921c-1.5 0-1.792.721-1.792 1.771v2.311h3.584l-.465 3.63H16.56V24h6.115c.733 0 1.325-.592 1.325-1.324V1.324C24 .593 23.408 0 22.676 0"/></symbol><symbol viewBox="0 0 24 24" id="github"><title id="simpleicons-github-icon">GitHub icon</title><path d="M12 .297c-6.63 0-12 5.373-12 12 0 5.303 3.438 9.8 8.205 11.385.6.113.82-.258.82-.577 0-.285-.01-1.04-.015-2.04-3.338.724-4.042-1.61-4.042-1.61C4.422 18.07 3.633 17.7 3.633 17.7c-1.087-.744.084-.729.084-.729 1.205.084 1.838 1.236 1.838 1.236 1.07 1.835 2.809 1.305 3.495.998.108-.776.417-1.305.76-1.605-2.665-.3-5.466-1.332-5.466-5.93 0-1.31.465-2.38 1.235-3.22-.135-.303-.54-1.523.105-3.176 0 0 1.005-.322 3.3 1.23.96-.267 1.98-.399 3-.405 1.02.006 2.04.138 3 .405 2.28-1.552 3.285-1.23 3.285-1.23.645 1.653.24 2.873.12 3.176.765.84 1.23 1.91 1.23 3.22 0 4.61-2.805 5.625-5.475 5.92.42.36.81 1.096.81 2.22 0 1.606-.015 2.896-.015 3.286 0 .315.21.69.825.57C20.565 22.092 24 17.592 24 12.297c0-6.627-5.373-12-12-12"/></symbol><symbol viewBox="0 0 16 16" id="hatenabookmark"><title id="simpleicons-hatenabookmark-icon">Hatena Bookmark icon</title><path d="M13.647 0C14.947 0 16 1.053 16 2.353v11.294c0 1.3-1.053 2.353-2.353 2.353H2.353A2.352 2.352 0 0 1 0 13.647V2.353C0 1.053 1.053 0 2.353 0h11.294zm-2.47 9.647a.94.94 0 1 0 0 1.882c.52 0 .94-.43.94-.95s-.42-.94-.94-.94zm-5.436 1.85c.8 0 1.37-.028 1.72-.08.35-.056.65-.148.88-.275.3-.155.52-.376.68-.66.16-.284.24-.61.24-.986 0-.52-.14-.936-.42-1.247-.28-.32-.66-.49-1.16-.53.44-.12.77-.3.97-.54.21-.23.31-.55.31-.95 0-.32-.07-.59-.2-.84-.14-.24-.33-.43-.59-.58-.23-.13-.49-.21-.81-.27-.31-.05-.86-.08-1.65-.08H3.77v6.99h1.97zm.49-2.79c.47 0 .79.058.96.174.18.12.26.33.26.62 0 .27-.09.46-.28.57-.18.12-.51.17-.96.17h-.67V8.71h.7zm5.77.47V4.47h-1.64v4.707H12zM5.95 6.053c.473 0 .79.054.955.16.163.107.245.29.245.554 0 .253-.087.43-.26.535-.177.103-.498.155-.968.155h-.38V6.053h.41z"/></symbol><symbol viewBox="0 0 24 24" id="line"><title id="simpleicons-line-icon">Line icon</title><path d="M19.365 9.863a.631.631 0 0 1 0 1.261H17.61v1.125h1.755a.63.63 0 1 1 0 1.259h-2.386a.631.631 0 0 1-.627-.629V8.108c0-.345.282-.63.63-.63h2.386a.63.63 0 0 1-.003 1.26H17.61v1.125h1.755zm-3.855 3.016a.63.63 0 0 1-.631.627.618.618 0 0 1-.51-.25l-2.443-3.317v2.94a.63.63 0 0 1-1.257 0V8.108a.627.627 0 0 1 .624-.628c.195 0 .375.104.495.254l2.462 3.33V8.108c0-.345.282-.63.63-.63.345 0 .63.285.63.63v4.771zm-5.741 0a.632.632 0 0 1-.631.629.631.631 0 0 1-.627-.629V8.108c0-.345.282-.63.63-.63.346 0 .628.285.628.63v4.771zm-2.466.629H4.917a.634.634 0 0 1-.63-.629V8.108c0-.345.285-.63.63-.63.348 0 .63.285.63.63v4.141h1.756a.63.63 0 0 1 0 1.259M24 10.314C24 4.943 18.615.572 12 .572S0 4.943 0 10.314c0 4.811 4.27 8.842 10.035 9.608.391.082.923.258 1.058.59.12.301.079.766.038 1.08l-.164 1.02c-.045.301-.24 1.186 1.049.645 1.291-.539 6.916-4.078 9.436-6.975C23.176 14.393 24 12.458 24 10.314"/></symbol><symbol viewBox="0 0 24 24" id="twitter"><title id="simpleicons-twitter-icon">Twitter icon</title><path d="M23.954 4.569a10 10 0 0 1-2.825.775 4.958 4.958 0 0 0 2.163-2.723c-.951.555-2.005.959-3.127 1.184a4.92 4.92 0 0 0-8.384 4.482C7.691 8.094 4.066 6.13 1.64 3.161a4.822 4.822 0 0 0-.666 2.475c0 1.71.87 3.213 2.188 4.096a4.904 4.904 0 0 1-2.228-.616v.061a4.923 4.923 0 0 0 3.946 4.827 4.996 4.996 0 0 1-2.212.085 4.937 4.937 0 0 0 4.604 3.417 9.868 9.868 0 0 1-6.102 2.105c-.39 0-.779-.023-1.17-.067a13.995 13.995 0 0 0 7.557 2.209c9.054 0 13.999-7.496 13.999-13.986 0-.209 0-.42-.015-.63a9.936 9.936 0 0 0 2.46-2.548l-.047-.02z"/></symbol></svg>