<svg xmlns="http://www.w3.org/2000/svg" width="299.27" height="237.75" viewBox="0 0 299.27 237.75"><defs><clipPath id="a"><path fill="none" d="M130.32 60.81l19.9-8.45 20.67 6.32 11.77 18.13-2.63 21.46-15.81 14.74-21.59 1.13-17.26-13.01-4.87-21.06 9.82-19.26z"/></clipPath><clipPath id="b"><path transform="rotate(-36.32 206.195 131.521)" fill="none" d="M177.72 103.06h56.92v56.92h-56.92z"/></clipPath></defs><title>dekomori-logo-bottomType</title><g data-name="レイヤー 2"><g fill="#eece69"><path d="M11.84 193.73c14.63 0 25.54 5.83 25.54 21.82 0 15.13-11.22 21.45-25.54 21.45H0v-43.27zm-3.1 36.64H11c9.61 0 17.3-3.78 17.3-14.88 0-11.66-7.69-14.94-17.3-14.94H8.74zm31.87-36.64h25.6v7.19h-17v10.42h15.64v7H49.23v11.41H66.4V237H40.61zM80.41 237h-8.74v-43.27h8.74v18.85h.12c1.74-2.23 5.83-7.32 7.5-9.3l8.12-9.55H107l-18.28 20.21 20 23.06H97l-9.55-11.66c-1.61-1.92-4.59-5.89-6.88-9.18h-.12z"/><path d="M148.05 215.18c0 13.83-8.37 22.57-21.26 22.57s-21-8.62-21-22.32c0-14.32 7.94-22.44 21.51-22.44 12.7.01 20.75 8.49 20.75 22.19zm-32.92.25c0 9.42 4.71 15.56 11.9 15.56 6.88 0 11.72-6.32 11.72-15.62 0-9.67-4.71-15.62-12-15.62-6.91 0-11.62 6.19-11.62 15.68zm57.1-1.05c1.18 3.6 2.67 8.8 3.66 12.83h.11c1.18-4 2.67-9.24 3.84-12.83l6.94-20.64h13.58V237H192v-21.14c0-4.22.06-10.91.19-15.87h-.12c-1.24 4.15-3.22 10.35-4.22 13.51l-8.36 23.5h-7.81l-8.06-23.25c-.68-1.92-3.29-10.35-4.22-13.76h-.12c.12 5 .19 11.66.19 15.87V237h-8v-43.27h14zm75.08.8c0 13.83-8.37 22.57-21.26 22.57s-21-8.62-21-22.32C205 201.11 213 193 226.54 193c12.71 0 20.77 8.48 20.77 22.18zm-32.92.25c0 9.42 4.71 15.56 11.9 15.56 6.88 0 11.72-6.32 11.72-15.62 0-9.67-4.71-15.62-12-15.62-6.91 0-11.62 6.19-11.62 15.68zm37.61-21.7h12.52c10.66 0 17.73 2.29 17.73 11.35 0 5.7-3.41 9.11-9.05 10.23v.12c3 .81 4.15 2.54 5.52 5.77l6.7 15.81h-9.61l-4.83-12.28c-1.8-4.53-2.6-5.7-7.94-5.7h-2.29v18H252zm8.74 18.6h2.54c6.88 0 10-1.74 10-6.08 0-4.71-3.72-5.7-10-5.7h-2.54zm29.79-18.6h8.74V237h-8.74z"/><rect x="13" y="179.01" width="7.07" height="7.07" rx="2" ry="2" transform="rotate(-45 16.54 182.539)"/><rect x="49.43" y="179.01" width="7.07" height="7.07" rx="2" ry="2" transform="rotate(-45 52.965 182.551)"/></g><path fill="#eece69" d="M147.45 8.71l49.33 16.03 27.49 43.99-7.22 51.37-38.55 34.71-51.84 1.82-40.88-31.94L75 73.94l24.35-45.8 48.1-19.43z"/><path fill="#fff" d="M201.83 51.65l9.32 40.37-18.81 36.92-38.15 16.19-39.63-12.11L92 98.27l5.05-41.13 30.3-28.26 41.38-2.17 33.1 24.94z"/><path fill="#f2f2f2" d="M196.25 73.6l-3.87 31.5-23.21 21.65-31.69 1.66-25.35-19.1L105 78.39l14.4-28.28 29.22-12.4 30.35 9.28 17.28 26.61z"/><path fill="#eece69" d="M182.75 63.87l5.67 24.54-11.44 22.44-23.18 9.84-24.09-7.36L116 92.2l3.06-25 18.43-17.17 25.15-1.32 20.11 15.16z"/><g clip-path="url(#a)"><g clip-path="url(#b)"><path fill="#eece69" d="M193.375 162.136l45.862-33.713 3.37 4.585-45.862 33.713z"/><path fill="#fff" d="M196.74 166.719l45.86-33.714 3.371 4.585-45.862 33.713z"/><path fill="#eece69" d="M186.625 152.966l45.862-33.713 3.37 4.584-45.862 33.714z"/><path fill="#fff" d="M190 157.558l45.86-33.713 3.371 4.584-45.862 33.714z"/><path fill="#eece69" d="M179.883 143.79l45.862-33.714 3.37 4.585-45.861 33.713z"/><path fill="#fff" d="M183.251 148.374l45.862-33.714 3.37 4.585-45.861 33.713z"/><path fill="#eece69" d="M173.141 134.623l45.862-33.713 3.37 4.584-45.861 33.714z"/><path fill="#fff" d="M176.51 139.207l45.861-33.713 3.37 4.585-45.861 33.713z"/><path fill="#eece69" d="M166.396 125.445l45.861-33.714 3.37 4.585-45.861 33.713z"/><path fill="#fff" d="M169.77 130.037l45.861-33.714 3.37 4.585-45.861 33.713z"/></g><path fill="#eece69" d="M208.89 87.14l-.47-.64-2.9-3.94-45.87 33.71-45.86 33.72 3.37 4.58 45.87-33.71 45.86-33.72z"/><path fill="#fff" d="M208.89 87.14l-45.86 33.72-45.87 33.71 3.37 4.59 45.87-33.72 45.86-33.71-3.37-4.59z"/><path fill="#eece69" d="M202.15 77.97l-1.98-2.69-1.4-1.9-45.86 33.72-45.86 33.71 3.37 4.59 45.86-33.71 45.87-33.72z"/><path fill="#fff" d="M205.52 82.56l-.88-1.2-2.49-3.39-45.87 33.72-45.86 33.71 3.37 4.59 45.86-33.72 45.87-33.71z"/><path fill="#eece69" d="M195.4 68.8l-1.28-1.75-2.09-2.84-45.86 33.72-45.87 33.71 3.37 4.59 45.87-33.72L195.4 68.8z"/><path fill="#fff" d="M198.77 73.38l-1.75-2.39-1.62-2.19-45.86 33.71-45.87 33.72 3.38 4.58 45.86-33.71 45.86-33.72z"/><path fill="#eece69" d="M188.66 59.62l-.59-.79-2.78-3.79-45.87 33.71-45.86 33.72 2.86 3.89.51.7 45.86-33.72 45.87-33.72z"/><path fill="#fff" d="M192.03 64.21l-2.63-3.59-.74-1-45.87 33.72-45.86 33.72 3.37 4.58 45.87-33.71 45.86-33.72z"/><path fill="#eece69" d="M181.92 50.45l-.15-.19-3.23-4.4-45.86 33.72-45.86 33.72 2.85 3.88.52.7 45.86-33.71 45.87-33.72z"/><path fill="#fff" d="M185.29 55.04l-3.37-4.59-45.87 33.72-45.86 33.71.51.7 2.86 3.89 45.86-33.72 45.87-33.71z"/><path fill="#eece69" d="M175.17 41.28l-.87-1.19-2.5-3.4-45.86 33.72-45.87 33.71 3.37 4.59 45.87-33.72 45.86-33.71z"/><path fill="#fff" d="M175.91 42.28l-.74-1-45.86 33.71-45.87 33.72 3.38 4.59 45.86-33.72 45.86-33.72-2.63-3.58z"/><path fill="#eece69" d="M168.43 32.1l-1.5-2.03-1.87-2.55-45.87 33.71-45.86 33.72 3.37 4.59 45.87-33.72 45.86-33.72z"/><path fill="#fff" d="M171.8 36.69l-2.11-2.86-1.26-1.73-45.86 33.72L76.7 99.54l3.37 4.58 45.87-33.71 45.86-33.72z"/><path fill="#eece69" d="M161.69 22.93l-2.13-2.89-1.25-1.69-45.86 33.71-45.86 33.72.99 1.35 2.38 3.23 45.86-33.71 45.87-33.72z"/><path fill="#fff" d="M165.06 27.52l-1.58-2.15-1.79-2.44-45.87 33.72-45.86 33.71 3.37 4.59 45.86-33.72 45.87-33.71z"/><path fill="#eece69" d="M154.94 13.76l-3.37-4.59-45.86 33.72-45.87 33.72 2.12 2.87 1.26 1.71 45.86-33.71 45.86-33.72z"/><path fill="#fff" d="M158.31 18.35l-3.37-4.59-45.86 33.72-45.86 33.71 1.88 2.57 1.49 2.02 45.86-33.72 45.86-33.71z"/><path fill="#eece69" d="M148.2 4.59L144.83 0 98.96 33.72 53.1 67.43l3.37 4.59 45.87-33.72L148.2 4.59z"/><path fill="#fff" d="M151.57 9.17l-3.37-4.58-45.86 33.71-45.87 33.72.2.27 3.17 4.32 45.87-33.72 45.86-33.72z"/></g></g></svg>