<svg xmlns="http://www.w3.org/2000/svg" width="299.27" height="229.04" viewBox="0 0 299.27 229.04">
  <title>dekomori-logo-bottomType</title>
  <g id="レイヤー_2" data-name="レイヤー 2">
    <g id="LOGO">
      <g id="bottom-type">
        <g id="typography">
          <g>
            <path d="M11.84,185c14.63,0,25.54,5.83,25.54,21.82,0,15.13-11.22,21.45-25.54,21.45H0V185Zm-3.1,36.64H11c9.61,0,17.3-3.78,17.3-14.88,0-11.66-7.69-14.94-17.3-14.94H8.74Z" fill="#eece69"/>
            <path d="M40.61,185h25.6v7.19h-17v10.42H64.85v7H49.23V221H66.4v7.25H40.61Z" fill="#eece69"/>
            <path d="M80.41,228.3H71.67V185h8.74v18.85h.12c1.74-2.23,5.83-7.32,7.5-9.3L96.16,185H107L88.72,205.23l20,23.06H97l-9.55-11.66c-1.61-1.92-4.59-5.89-6.88-9.18h-.12Z" fill="#eece69"/>
            <path d="M148.05,206.47c0,13.83-8.37,22.57-21.26,22.57s-21-8.62-21-22.32c0-14.32,7.94-22.44,21.51-22.44C140,184.28,148.05,192.77,148.05,206.47Zm-32.92.25c0,9.42,4.71,15.56,11.9,15.56,6.88,0,11.72-6.32,11.72-15.62,0-9.67-4.71-15.62-12-15.62C119.84,191,115.13,197.24,115.13,206.72Z" fill="#eece69"/>
            <path d="M172.23,205.67c1.18,3.6,2.67,8.8,3.66,12.83H176c1.18-4,2.67-9.24,3.84-12.83L186.8,185h13.58V228.3H192V207.16c0-4.22.06-10.91.19-15.87h-.12c-1.24,4.15-3.22,10.35-4.22,13.51l-8.37,23.5h-7.81L163.61,205c-.68-1.92-3.29-10.35-4.22-13.76h-.12c.12,5,.19,11.66.19,15.87V228.3h-8V185h14Z" fill="#eece69"/>
            <path d="M247.31,206.47c0,13.83-8.37,22.57-21.26,22.57s-21-8.62-21-22.32c0-14.32,7.94-22.44,21.51-22.44C239.25,184.28,247.31,192.77,247.31,206.47Zm-32.92.25c0,9.42,4.71,15.56,11.9,15.56,6.88,0,11.72-6.32,11.72-15.62C238,197,233.3,191,226,191,219.1,191,214.39,197.24,214.39,206.72Z" fill="#eece69"/>
            <path d="M252,185h12.52c10.66,0,17.73,2.29,17.73,11.35,0,5.7-3.41,9.11-9.05,10.23v.12c3,.81,4.15,2.54,5.52,5.77l6.7,15.81h-9.61L270.94,216c-1.8-4.53-2.6-5.7-7.94-5.7h-2.29v18H252Zm8.74,18.6h2.54c6.88,0,10-1.74,10-6.08,0-4.71-3.72-5.7-10-5.7h-2.54Z" fill="#eece69"/>
            <path d="M290.53,185h8.74V228.3h-8.74Z" fill="#eece69"/>
          </g>
          <rect id="bouten1" x="13" y="170.3" width="7.07" height="7.07" rx="2" ry="2" transform="translate(-118.08 62.61) rotate(-45)" fill="#eece69"/>
          <rect id="bouten2" x="49.43" y="170.3" width="7.07" height="7.07" rx="2" ry="2" transform="translate(-107.41 88.37) rotate(-45)" fill="#eece69"/>
        </g>
        <g id="circle">
          <polygon id="circleOuter3" points="147.45 0 196.78 16.03 224.27 60.02 217.05 111.39 178.5 146.11 126.66 147.92 85.78 115.98 75 65.24 99.35 19.43 147.45 0" fill="#eece69"/>
          <polygon id="circleOuter2" points="201.83 42.94 211.15 83.31 192.34 120.23 154.19 136.43 114.56 124.31 92 89.56 97.05 48.43 127.35 20.17 168.73 18 201.83 42.94" fill="#fff"/>
          <polygon id="circleOuter1" points="196.25 64.89 192.38 96.39 169.17 118.04 137.48 119.7 112.13 100.6 105 69.68 119.4 41.4 148.62 29 178.97 38.28 196.25 64.89" fill="#f2f2f2"/>
          <polygon id="circleStripeBG" points="182.75 55.16 188.42 79.7 176.98 102.14 153.8 111.98 129.71 104.62 116 83.49 119.06 58.49 137.49 41.32 162.64 40 182.75 55.16" fill="#eece69"/>
          <g id="circleStripe">
            <polygon points="164.22 104.3 164.71 103.85 164.08 104.31 164.22 104.3" fill="#eece69"/>
            <polygon points="156.28 102.98 180.58 85.12 181.53 77.35 152.91 98.39 143.38 105.39 153.73 104.85 156.28 102.98" fill="#eece69"/>
            <polygon points="153.73 104.85 164.08 104.31 164.71 103.85 180.03 89.56 180.58 85.12 156.28 102.98 153.73 104.85" fill="#fff"/>
            <polygon points="182.48 69.58 182.66 68.1 180.15 64.23 146.17 89.22 133.48 98.54 138.23 102.12 149.54 93.8 182.48 69.58" fill="#eece69"/>
            <polygon points="181.53 77.35 182.48 69.58 149.54 93.8 138.23 102.12 142.63 105.43 143.38 105.39 152.91 98.39 181.53 77.35" fill="#fff"/>
            <polygon points="177.05 59.45 173.94 54.67 139.42 80.05 124.96 90.67 125.37 92.42 128.74 94.97 142.79 84.63 177.05 59.45" fill="#eece69"/>
            <polygon points="180.15 64.23 177.05 59.45 142.79 84.63 128.74 94.97 133.48 98.54 146.17 89.22 180.15 64.23" fill="#fff"/>
            <polygon points="170.77 49.94 163.98 47.86 132.68 70.87 122.17 78.6 123.57 84.64 136.05 75.46 170.77 49.94" fill="#eece69"/>
            <polygon points="173.94 54.67 170.89 49.97 170.77 49.94 136.05 75.46 123.57 84.64 124.96 90.67 139.42 80.05 173.94 54.67" fill="#fff"/>
            <polygon points="157.2 45.78 150.41 43.71 125.94 61.7 125.12 62.3 120.5 71.36 120.78 72.56 129.31 66.29 157.2 45.78" fill="#eece69"/>
            <polygon points="157.2 45.78 129.31 66.29 120.78 72.56 122.17 78.6 132.68 70.87 163.98 47.86 157.2 45.78" fill="#fff"/>
            <polygon points="150.41 43.71 150.22 43.65 130.32 52.1 125.12 62.3 125.94 61.7 150.41 43.71" fill="#fff"/>
          </g>
        </g>
      </g>
    </g>
  </g>
</svg>
