<svg id="LOGO" xmlns="http://www.w3.org/2000/svg" xmlns:xlink="http://www.w3.org/1999/xlink" width="299.27" height="229.04" viewBox="0 0 299.27 229.04"><defs><style>.cls-1{fill:none;}.cls-2{fill:#eece69;}.cls-3{fill:#fff;}.cls-4{fill:#f2f2f2;}.cls-5{clip-path:url(#clip-path);}.cls-6{clip-path:url(#clip-path-2);}</style><clipPath id="clip-path"><polygon class="cls-1" points="130.32 52.1 150.22 43.65 170.89 49.97 182.66 68.1 180.03 89.56 164.22 104.3 142.63 105.43 125.37 92.42 120.5 71.36 130.32 52.1"/></clipPath><clipPath id="clip-path-2"><rect class="cls-1" x="177.72" y="94.35" width="56.92" height="56.92" transform="translate(-32.68 145.99) rotate(-36.32)"/></clipPath></defs><title>dekomori-logo-OL</title><g id="bottom-type"><g id="typography"><path class="cls-2" d="M11.84,185c14.63,0,25.54,5.83,25.54,21.82,0,15.13-11.22,21.45-25.54,21.45H0V185H11.84Zm-3.1,36.64H11c9.61,0,17.3-3.78,17.3-14.88,0-11.66-7.69-14.94-17.3-14.94H8.74v29.82Z"/><path class="cls-2" d="M40.61,185h25.6v7.19h-17v10.42H64.85v7H49.23V221H66.4v7.25H40.61V185Z"/><path class="cls-2" d="M80.41,228.3H71.67V185h8.74v18.85h0.12c1.74-2.23,5.83-7.32,7.5-9.3L96.16,185H107L88.72,205.23l20,23.06H97l-9.55-11.66c-1.61-1.92-4.59-5.89-6.88-9.18H80.41V228.3Z"/><path class="cls-2" d="M148.05,206.47c0,13.83-8.37,22.57-21.26,22.57s-21-8.62-21-22.32c0-14.32,7.94-22.44,21.51-22.44C140,184.28,148.05,192.77,148.05,206.47Zm-32.92.25c0,9.42,4.71,15.56,11.9,15.56,6.88,0,11.72-6.32,11.72-15.62,0-9.67-4.71-15.62-12-15.62C119.84,191,115.13,197.24,115.13,206.72Z"/><path class="cls-2" d="M172.23,205.67c1.18,3.6,2.67,8.8,3.66,12.83H176c1.18-4,2.67-9.24,3.84-12.83L186.8,185h13.58V228.3H192V207.16c0-4.22.06-10.91,0.19-15.87h-0.12c-1.24,4.15-3.22,10.35-4.22,13.51l-8.37,23.5h-7.81L163.61,205c-0.68-1.92-3.29-10.35-4.22-13.76h-0.12c0.12,5,.19,11.66.19,15.87V228.3h-8V185h14Z"/><path class="cls-2" d="M247.31,206.47c0,13.83-8.37,22.57-21.26,22.57s-21-8.62-21-22.32c0-14.32,7.94-22.44,21.51-22.44C239.25,184.28,247.31,192.77,247.31,206.47Zm-32.92.25c0,9.42,4.71,15.56,11.9,15.56,6.88,0,11.72-6.32,11.72-15.62C238,197,233.3,191,226,191,219.1,191,214.39,197.24,214.39,206.72Z"/><path class="cls-2" d="M252,185h12.52c10.66,0,17.73,2.29,17.73,11.35,0,5.7-3.41,9.11-9.05,10.23v0.12c3,0.81,4.15,2.54,5.52,5.77l6.7,15.81h-9.61L270.94,216c-1.8-4.53-2.6-5.7-7.94-5.7h-2.29v18H252V185Zm8.74,18.6h2.54c6.88,0,10-1.74,10-6.08,0-4.71-3.72-5.7-10-5.7h-2.54v11.78Z"/><path class="cls-2" d="M290.53,185h8.74V228.3h-8.74V185Z"/><rect id="bouten1" class="cls-2" x="13" y="170.3" width="7.07" height="7.07" rx="2" ry="2" transform="translate(-118.08 62.61) rotate(-45)"/><rect id="bouten2" class="cls-2" x="49.43" y="170.3" width="7.07" height="7.07" rx="2" ry="2" transform="translate(-107.41 88.37) rotate(-45)"/></g><g id="circle"><polygon id="circleOuter3" class="cls-2" points="147.45 0 196.78 16.03 224.27 60.02 217.05 111.39 178.5 146.11 126.66 147.92 85.78 115.98 75 65.24 99.35 19.43 147.45 0"/><polygon id="circleOuter2" class="cls-3" points="201.83 42.94 211.15 83.31 192.34 120.23 154.19 136.43 114.56 124.31 92 89.56 97.05 48.43 127.35 20.17 168.73 18 201.83 42.94"/><polygon id="circleOuter1" class="cls-4" points="196.25 64.89 192.38 96.39 169.17 118.04 137.48 119.7 112.13 100.6 105 69.68 119.4 41.4 148.62 29 178.97 38.28 196.25 64.89"/><polygon id="circleStripeBG" class="cls-2" points="182.75 55.16 188.42 79.7 176.98 102.14 153.8 111.98 129.71 104.62 116 83.49 119.06 58.49 137.49 41.32 162.64 40 182.75 55.16"/><g id="circleStripe"><g class="cls-5"><g class="cls-6"><rect class="cls-2" x="189.53" y="136.02" width="56.92" height="5.69" transform="translate(-39.9 156.09) rotate(-36.32)"/><rect class="cls-3" x="192.9" y="140.6" width="56.92" height="5.69" transform="translate(-41.96 158.98) rotate(-36.32)"/><rect class="cls-2" x="182.78" y="126.84" width="56.92" height="5.69" transform="translate(-35.77 150.32) rotate(-36.32)"/><rect class="cls-3" x="186.15" y="131.43" width="56.92" height="5.69" transform="translate(-37.84 153.21) rotate(-36.32)"/><rect class="cls-2" x="176.04" y="117.67" width="56.92" height="5.69" transform="translate(-31.65 144.54) rotate(-36.32)"/><rect class="cls-3" x="179.41" y="122.26" width="56.92" height="5.69" transform="translate(-33.71 147.43) rotate(-36.32)"/><rect class="cls-2" x="169.3" y="108.5" width="56.92" height="5.69" transform="translate(-27.53 138.77) rotate(-36.32)"/><rect class="cls-3" x="172.67" y="113.08" width="56.92" height="5.69" transform="translate(-29.59 141.65) rotate(-36.32)"/><rect class="cls-2" x="162.55" y="99.32" width="56.92" height="5.69" transform="translate(-23.4 132.99) rotate(-36.32)"/><rect class="cls-3" x="165.92" y="103.91" width="56.92" height="5.69" transform="translate(-25.47 135.88) rotate(-36.32)"/></g><polygon class="cls-2" points="208.89 78.43 208.42 77.79 205.52 73.85 159.65 107.56 113.79 141.28 117.16 145.87 163.03 112.15 208.89 78.43"/><polygon class="cls-3" points="208.89 78.43 163.03 112.15 117.16 145.87 120.53 150.45 166.4 116.74 212.26 83.02 208.89 78.43"/><polygon class="cls-2" points="202.15 69.26 200.17 66.57 198.77 64.67 152.91 98.39 107.05 132.11 110.42 136.69 156.28 102.98 202.15 69.26"/><polygon class="cls-3" points="205.52 73.85 204.64 72.65 202.15 69.26 156.28 102.98 110.42 136.69 113.79 141.28 159.65 107.56 205.52 73.85"/><polygon class="cls-2" points="195.4 60.09 194.12 58.34 192.03 55.5 146.17 89.22 100.3 122.93 103.67 127.52 149.54 93.8 195.4 60.09"/><polygon class="cls-3" points="198.77 64.67 197.02 62.28 195.4 60.09 149.54 93.8 103.67 127.52 107.05 132.11 152.91 98.39 198.77 64.67"/><polygon class="cls-2" points="188.66 50.91 188.07 50.12 185.29 46.33 139.42 80.05 93.56 113.76 96.42 117.65 96.93 118.35 142.79 84.63 188.66 50.91"/><polygon class="cls-3" points="192.03 55.5 189.4 51.92 188.66 50.91 142.79 84.63 96.93 118.35 100.3 122.93 146.17 89.22 192.03 55.5"/><polygon class="cls-2" points="181.92 41.74 181.77 41.55 178.54 37.16 132.68 70.87 86.82 104.59 89.67 108.47 90.19 109.17 136.05 75.46 181.92 41.74"/><polygon class="cls-3" points="185.29 46.33 181.92 41.74 136.05 75.46 90.19 109.17 90.7 109.88 93.56 113.76 139.42 80.05 185.29 46.33"/><polygon class="cls-2" points="175.17 32.57 174.3 31.38 171.8 27.98 125.94 61.7 80.07 95.42 83.44 100 129.31 66.29 175.17 32.57"/><polygon class="cls-3" points="175.91 33.57 175.17 32.57 129.31 66.29 83.44 100 86.82 104.59 132.68 70.87 178.54 37.16 175.91 33.57"/><polygon class="cls-2" points="168.43 23.4 166.93 21.36 165.06 18.81 119.19 52.53 73.33 86.24 76.7 90.83 122.57 57.11 168.43 23.4"/><polygon class="cls-3" points="171.8 27.98 169.69 25.12 168.43 23.4 122.57 57.11 76.7 90.83 80.07 95.42 125.94 61.7 171.8 27.98"/><polygon class="cls-2" points="161.69 14.22 159.56 11.34 158.31 9.64 112.45 43.35 66.59 77.07 67.58 78.42 69.96 81.66 115.82 47.94 161.69 14.22"/><polygon class="cls-3" points="165.06 18.81 163.48 16.66 161.69 14.22 115.82 47.94 69.96 81.66 73.33 86.24 119.19 52.53 165.06 18.81"/><polygon class="cls-2" points="154.94 5.05 151.57 0.47 105.71 34.18 59.84 67.9 61.96 70.77 63.22 72.48 109.08 38.77 154.94 5.05"/><polygon class="cls-3" points="158.31 9.64 154.94 5.05 109.08 38.77 63.22 72.48 65.1 75.05 66.59 77.07 112.45 43.35 158.31 9.64"/><polygon class="cls-2" points="148.2 -4.12 144.83 -8.71 98.96 25.01 53.1 58.72 56.47 63.31 102.34 29.59 148.2 -4.12"/><polygon class="cls-3" points="151.57 0.47 148.2 -4.12 102.34 29.59 56.47 63.31 56.67 63.58 59.84 67.9 105.71 34.18 151.57 0.47"/></g></g></g></g></svg>