<svg xmlns="http://www.w3.org/2000/svg" width="299.27" height="59.38" viewBox="0 0 299.27 59.38">
  <title>dekomori-logo-type</title>
  <g id="レイヤー_2" data-name="レイヤー 2">
    <g id="LOGO">
      <g id="typography">
        <g>
          <path d="M11.84,15.36c14.63,0,25.54,5.83,25.54,21.82,0,15.13-11.22,21.45-25.54,21.45H0V15.36ZM8.74,52H11c9.61,0,17.3-3.78,17.3-14.88,0-11.66-7.69-14.94-17.3-14.94H8.74Z" fill="#eece69"/>
          <path d="M40.61,15.36h25.6v7.19h-17V33H64.85v7H49.23V51.38H66.4v7.25H40.61Z" fill="#eece69"/>
          <path d="M80.41,58.63H71.67V15.36h8.74V34.21h.12c1.74-2.23,5.83-7.32,7.5-9.3l8.12-9.55H107L88.72,35.57l20,23.06H97L87.42,47c-1.61-1.92-4.59-5.89-6.88-9.18h-.12Z" fill="#eece69"/>
          <path d="M148.05,36.81c0,13.83-8.37,22.57-21.26,22.57s-21-8.62-21-22.32c0-14.32,7.94-22.44,21.51-22.44C140,14.62,148.05,23.11,148.05,36.81Zm-32.92.25c0,9.42,4.71,15.56,11.9,15.56,6.88,0,11.72-6.32,11.72-15.62,0-9.67-4.71-15.62-12-15.62C119.84,21.37,115.13,27.57,115.13,37.06Z" fill="#eece69"/>
          <path d="M172.23,36c1.18,3.6,2.67,8.8,3.66,12.83H176c1.18-4,2.67-9.24,3.84-12.83l6.94-20.64h13.58V58.63H192V37.49c0-4.22.06-10.91.19-15.87h-.12c-1.24,4.15-3.22,10.35-4.22,13.51l-8.37,23.5h-7.81l-8.06-23.25c-.68-1.92-3.29-10.35-4.22-13.76h-.12c.12,5,.19,11.66.19,15.87V58.63h-8V15.36h14Z" fill="#eece69"/>
          <path d="M247.31,36.81c0,13.83-8.37,22.57-21.26,22.57s-21-8.62-21-22.32c0-14.32,7.94-22.44,21.51-22.44C239.25,14.62,247.31,23.11,247.31,36.81Zm-32.92.25c0,9.42,4.71,15.56,11.9,15.56C233.18,52.62,238,46.3,238,37c0-9.67-4.71-15.62-12-15.62C219.1,21.37,214.39,27.57,214.39,37.06Z" fill="#eece69"/>
          <path d="M252,15.36h12.52c10.66,0,17.73,2.29,17.73,11.35,0,5.7-3.41,9.11-9.05,10.23v.12c3,.81,4.15,2.54,5.52,5.77l6.7,15.81h-9.61l-4.83-12.28c-1.8-4.53-2.6-5.7-7.94-5.7h-2.29v18H252ZM260.71,34h2.54c6.88,0,10-1.74,10-6.08,0-4.71-3.72-5.7-10-5.7h-2.54Z" fill="#eece69"/>
          <path d="M290.53,15.36h8.74V58.63h-8.74Z" fill="#eece69"/>
        </g>
        <rect id="bouten1" x="13" y="0.64" width="7.07" height="7.07" rx="2" ry="2" transform="translate(1.89 12.91) rotate(-45)" fill="#eece69"/>
        <rect id="bouten2" x="49.43" y="0.64" width="7.07" height="7.07" rx="2" ry="2" transform="translate(12.56 38.67) rotate(-45)" fill="#eece69"/>
      </g>
    </g>
  </g>
</svg>
