<svg id="LOGO" xmlns="http://www.w3.org/2000/svg" xmlns:xlink="http://www.w3.org/1999/xlink" width="472.48" height="147.92" viewBox="0 0 472.48 147.92"><defs><style>.cls-1{fill:none;}.cls-2{fill:#eece69;}.cls-3{fill:#fff;}.cls-4{fill:#f2f2f2;}.cls-5{clip-path:url(#clip-path);}.cls-6{clip-path:url(#clip-path-2);}</style><clipPath id="clip-path"><polygon class="cls-1" points="55.32 52.1 75.22 43.65 95.9 49.97 107.67 68.1 105.04 89.56 89.22 104.3 67.64 105.43 50.37 92.42 45.51 71.36 55.32 52.1"/></clipPath><clipPath id="clip-path-2"><rect class="cls-1" x="102.73" y="94.35" width="56.92" height="56.92" transform="matrix(0.81, -0.59, 0.59, 0.81, -47.25, 101.57)"/></clipPath></defs><title>dekomori-logo-OL</title><g id="side-type"><g id="typography"><path class="cls-2" d="M185,54.76c14.63,0,25.54,5.83,25.54,21.82C210.59,91.71,199.37,98,185,98H173.21V54.76H185Zm-3.1,36.64h2.29c9.61,0,17.3-3.78,17.3-14.88,0-11.66-7.69-14.94-17.3-14.94h-2.29V91.4Z"/><path class="cls-2" d="M213.82,54.76h25.6V62h-17V72.37h15.62v7H222.43V90.78h17.17V98H213.82V54.76Z"/><path class="cls-2" d="M253.62,98h-8.74V54.76h8.74V73.61h0.12c1.74-2.23,5.83-7.32,7.5-9.3l8.12-9.55h10.85L261.93,75,282,98H270.17l-9.55-11.66c-1.61-1.92-4.59-5.89-6.88-9.18h-0.12V98Z"/><path class="cls-2" d="M321.26,76.22c0,13.83-8.37,22.57-21.26,22.57s-21-8.62-21-22.32C279,62.14,286.91,54,300.49,54,313.2,54,321.26,62.51,321.26,76.22Zm-32.92.25c0,9.42,4.71,15.56,11.9,15.56C307.12,92,312,85.7,312,76.4c0-9.67-4.71-15.62-12-15.62C293.05,60.78,288.34,67,288.34,76.46Z"/><path class="cls-2" d="M345.44,75.41c1.18,3.6,2.67,8.8,3.66,12.83h0.12c1.18-4,2.67-9.24,3.84-12.83L360,54.76h13.58V98h-8.37V76.9c0-4.22.06-10.91,0.19-15.87h-0.12c-1.24,4.15-3.22,10.35-4.22,13.51L352.69,98h-7.81l-8.06-23.25c-0.68-1.92-3.29-10.35-4.22-13.76h-0.12c0.12,5,.19,11.66.19,15.87V98h-8V54.76h14Z"/><path class="cls-2" d="M420.52,76.22c0,13.83-8.37,22.57-21.26,22.57s-21-8.62-21-22.32c0-14.32,7.94-22.44,21.51-22.44C412.46,54,420.52,62.51,420.52,76.22Zm-32.92.25c0,9.42,4.71,15.56,11.9,15.56,6.88,0,11.72-6.32,11.72-15.62,0-9.67-4.71-15.62-12-15.62C392.31,60.78,387.6,67,387.6,76.46Z"/><path class="cls-2" d="M425.17,54.76H437.7c10.66,0,17.73,2.29,17.73,11.35,0,5.7-3.41,9.11-9.05,10.23v0.12c3,0.81,4.15,2.54,5.52,5.77L458.59,98H449l-4.84-12.28c-1.8-4.53-2.6-5.7-7.94-5.7h-2.29V98h-8.74V54.76Zm8.74,18.6h2.54c6.88,0,10-1.74,10-6.08,0-4.71-3.72-5.7-10-5.7h-2.54V73.36Z"/><path class="cls-2" d="M463.73,54.76h8.74V98h-8.74V54.76Z"/><rect id="bouten1" class="cls-2" x="186.21" y="40.04" width="7.07" height="7.07" rx="2" ry="2" transform="translate(24.76 146.93) rotate(-45)"/><rect id="bouten2" class="cls-2" x="222.64" y="40.04" width="7.07" height="7.07" rx="2" ry="2" transform="translate(35.43 172.69) rotate(-45)"/></g><g id="circle"><polygon id="circleOuter3" class="cls-2" points="72.45 0 121.79 16.03 149.28 60.02 142.06 111.39 103.51 146.11 51.66 147.92 10.79 115.98 0 65.24 24.35 19.43 72.45 0"/><polygon id="circleOuter2" class="cls-3" points="126.83 42.94 136.15 83.31 117.34 120.23 79.2 136.43 39.57 124.31 17 89.56 22.05 48.43 52.36 20.17 93.74 18 126.83 42.94"/><polygon id="circleOuter1" class="cls-4" points="121.26 64.89 117.39 96.39 94.18 118.04 62.48 119.7 37.14 100.6 30 69.68 44.41 41.4 73.62 29 103.97 38.28 121.26 64.89"/><polygon id="circleStripeBG" class="cls-2" points="107.76 55.16 113.42 79.7 101.99 102.14 78.8 111.98 54.72 104.62 41 83.49 44.07 58.49 62.49 41.32 87.64 40 107.76 55.16"/><g id="circleStripe"><g class="cls-5"><g class="cls-6"><rect class="cls-2" x="114.53" y="136.02" width="56.92" height="5.69" transform="translate(-54.47 111.67) rotate(-36.32)"/><rect class="cls-3" x="117.9" y="140.6" width="56.92" height="5.69" transform="translate(-56.53 114.56) rotate(-36.32)"/><rect class="cls-2" x="107.79" y="126.84" width="56.92" height="5.69" transform="translate(-50.34 105.9) rotate(-36.32)"/><rect class="cls-3" x="111.16" y="131.43" width="56.92" height="5.69" transform="translate(-52.41 108.79) rotate(-36.32)"/><rect class="cls-2" x="101.04" y="117.67" width="56.92" height="5.69" transform="translate(-46.22 100.12) rotate(-36.32)"/><rect class="cls-3" x="104.42" y="122.26" width="56.92" height="5.69" transform="translate(-48.28 103.01) rotate(-36.32)"/><rect class="cls-2" x="94.3" y="108.5" width="56.92" height="5.69" transform="translate(-42.1 94.35) rotate(-36.32)"/><rect class="cls-3" x="97.67" y="113.08" width="56.92" height="5.69" transform="translate(-44.16 97.23) rotate(-36.32)"/><rect class="cls-2" x="87.56" y="99.32" width="56.92" height="5.69" transform="translate(-37.98 88.57) rotate(-36.32)"/><rect class="cls-3" x="90.93" y="103.91" width="56.92" height="5.69" transform="translate(-40.04 91.46) rotate(-36.32)"/></g><polygon class="cls-2" points="133.89 78.43 133.42 77.79 130.52 73.85 84.66 107.56 38.79 141.28 42.17 145.87 88.03 112.15 133.89 78.43"/><polygon class="cls-3" points="133.89 78.43 88.03 112.15 42.17 145.87 45.54 150.45 91.4 116.74 137.26 83.02 133.89 78.43"/><polygon class="cls-2" points="127.15 69.26 125.17 66.57 123.78 64.67 77.92 98.39 32.05 132.11 35.42 136.69 81.29 102.98 127.15 69.26"/><polygon class="cls-3" points="130.52 73.85 129.64 72.65 127.15 69.26 81.29 102.98 35.42 136.69 38.79 141.28 84.66 107.56 130.52 73.85"/><polygon class="cls-2" points="120.41 60.09 119.13 58.34 117.04 55.5 71.17 89.22 25.31 122.93 28.68 127.52 74.54 93.8 120.41 60.09"/><polygon class="cls-3" points="123.78 64.67 122.02 62.28 120.41 60.09 74.54 93.8 28.68 127.52 32.05 132.11 77.92 98.39 123.78 64.67"/><polygon class="cls-2" points="113.66 50.91 113.08 50.12 110.29 46.33 64.43 80.05 18.57 113.76 21.42 117.65 21.94 118.35 67.8 84.63 113.66 50.91"/><polygon class="cls-3" points="117.04 55.5 114.4 51.92 113.66 50.91 67.8 84.63 21.94 118.35 25.31 122.93 71.17 89.22 117.04 55.5"/><polygon class="cls-2" points="106.92 41.74 106.78 41.55 103.55 37.16 57.69 70.87 11.82 104.59 14.68 108.47 15.19 109.17 61.06 75.46 106.92 41.74"/><polygon class="cls-3" points="110.29 46.33 106.92 41.74 61.06 75.46 15.19 109.17 15.71 109.88 18.57 113.76 64.43 80.05 110.29 46.33"/><polygon class="cls-2" points="100.18 32.57 99.3 31.38 96.81 27.98 50.94 61.7 5.08 95.42 8.45 100 54.31 66.29 100.18 32.57"/><polygon class="cls-3" points="100.92 33.57 100.18 32.57 54.31 66.29 8.45 100 11.82 104.59 57.69 70.87 103.55 37.16 100.92 33.57"/><polygon class="cls-2" points="93.43 23.4 91.94 21.36 90.06 18.81 44.2 52.53 -1.67 86.24 1.71 90.83 47.57 57.11 93.43 23.4"/><polygon class="cls-3" points="96.81 27.98 94.7 25.12 93.43 23.4 47.57 57.11 1.71 90.83 5.08 95.42 50.94 61.7 96.81 27.98"/><polygon class="cls-2" points="86.69 14.22 84.57 11.34 83.32 9.64 37.46 43.35 -8.41 77.07 -7.42 78.42 -5.04 81.66 40.83 47.94 86.69 14.22"/><polygon class="cls-3" points="90.06 18.81 88.48 16.66 86.69 14.22 40.83 47.94 -5.04 81.66 -1.67 86.24 44.2 52.53 90.06 18.81"/><polygon class="cls-2" points="79.95 5.05 76.58 0.47 30.71 34.18 -15.15 67.9 -13.04 70.77 -11.78 72.48 34.08 38.77 79.95 5.05"/><polygon class="cls-3" points="83.32 9.64 79.95 5.05 34.08 38.77 -11.78 72.48 -9.89 75.05 -8.41 77.07 37.46 43.35 83.32 9.64"/><polygon class="cls-2" points="73.2 -4.12 69.83 -8.71 23.97 25.01 -21.89 58.72 -18.52 63.31 27.34 29.59 73.2 -4.12"/><polygon class="cls-3" points="76.58 0.47 73.2 -4.12 27.34 29.59 -18.52 63.31 -18.32 63.58 -15.15 67.9 30.71 34.18 76.58 0.47"/></g></g></g></g></svg>