<svg xmlns="http://www.w3.org/2000/svg" width="149.28" height="147.92" viewBox="0 0 149.28 147.92">
  <title>dekomori-logo-symbol</title>
  <g id="レイヤー_2" data-name="レイヤー 2">
    <g id="LOGO">
      <g id="circle">
        <polygon id="circleOuter3" points="72.45 0 121.79 16.03 149.28 60.02 142.06 111.39 103.51 146.11 51.66 147.92 10.79 115.98 0 65.24 24.35 19.43 72.45 0" fill="#eece69"/>
        <polygon id="circleOuter2" points="126.83 42.94 136.15 83.31 117.34 120.23 79.2 136.43 39.57 124.31 17 89.56 22.05 48.43 52.36 20.17 93.74 18 126.83 42.94" fill="#fff"/>
        <polygon id="circleOuter1" points="121.26 64.89 117.39 96.39 94.18 118.04 62.48 119.7 37.14 100.6 30 69.68 44.41 41.4 73.62 29 103.97 38.28 121.26 64.89" fill="#f2f2f2"/>
        <polygon id="circleStripeBG" points="107.76 55.16 113.42 79.7 101.99 102.14 78.8 111.98 54.72 104.62 41 83.49 44.07 58.49 62.49 41.32 87.64 40 107.76 55.16" fill="#eece69"/>
        <g id="circleStripe">
          <polygon points="89.22 104.3 89.72 103.85 89.08 104.31 89.22 104.3" fill="#eece69"/>
          <polygon points="81.29 102.98 105.58 85.12 106.53 77.35 77.92 98.39 68.39 105.39 78.73 104.85 81.29 102.98" fill="#eece69"/>
          <polygon points="78.73 104.85 89.08 104.31 89.72 103.85 105.04 89.56 105.58 85.12 81.29 102.98 78.73 104.85" fill="#fff"/>
          <polygon points="107.49 69.58 107.67 68.1 105.16 64.23 71.17 89.22 58.49 98.54 63.23 102.12 74.54 93.8 107.49 69.58" fill="#eece69"/>
          <polygon points="106.53 77.35 107.49 69.58 74.54 93.8 63.23 102.12 67.64 105.43 68.39 105.39 77.92 98.39 106.53 77.35" fill="#fff"/>
          <polygon points="102.05 59.45 98.95 54.67 64.43 80.05 49.97 90.67 50.37 92.42 53.74 94.97 67.8 84.63 102.05 59.45" fill="#eece69"/>
          <polygon points="105.16 64.23 102.05 59.45 67.8 84.63 53.74 94.97 58.49 98.54 71.17 89.22 105.16 64.23" fill="#fff"/>
          <polygon points="95.78 49.94 88.99 47.86 57.69 70.87 47.18 78.6 48.57 84.64 61.06 75.46 95.78 49.94" fill="#eece69"/>
          <polygon points="98.95 54.67 95.9 49.97 95.78 49.94 61.06 75.46 48.57 84.64 49.97 90.67 64.43 80.05 98.95 54.67" fill="#fff"/>
          <polygon points="82.2 45.78 75.41 43.71 50.94 61.7 50.12 62.3 45.51 71.36 45.78 72.56 54.31 66.29 82.2 45.78" fill="#eece69"/>
          <polygon points="88.99 47.86 82.2 45.78 54.31 66.29 45.78 72.56 47.18 78.6 57.69 70.87 88.99 47.86" fill="#fff"/>
          <polygon points="75.41 43.71 75.22 43.65 55.32 52.1 50.12 62.3 50.94 61.7 75.41 43.71" fill="#fff"/>
        </g>
      </g>
    </g>
  </g>
</svg>
