<svg xmlns="http://www.w3.org/2000/svg" width="472.48" height="147.92" viewBox="0 0 472.48 147.92">
  <title>dekomori-logo-sideType</title>
  <g id="レイヤー_2" data-name="レイヤー 2">
    <g id="LOGO">
      <g id="side-type">
        <g id="typography">
          <g>
            <path d="M185,54.76c14.63,0,25.54,5.83,25.54,21.82C210.59,91.71,199.37,98,185,98H173.21V54.76Zm-3.1,36.64h2.29c9.61,0,17.3-3.78,17.3-14.88,0-11.66-7.69-14.94-17.3-14.94h-2.29Z" fill="#eece69"/>
            <path d="M213.82,54.76h25.6V62h-17V72.37h15.62v7H222.43V90.78h17.17V98H213.82Z" fill="#eece69"/>
            <path d="M253.62,98h-8.74V54.76h8.74V73.61h.12c1.74-2.23,5.83-7.32,7.5-9.3l8.12-9.55h10.85L261.93,75,282,98H270.17l-9.55-11.66c-1.61-1.92-4.59-5.89-6.88-9.18h-.12Z" fill="#eece69"/>
            <path d="M321.26,76.22c0,13.83-8.37,22.57-21.26,22.57s-21-8.62-21-22.32C279,62.14,286.91,54,300.49,54,313.2,54,321.26,62.51,321.26,76.22Zm-32.92.25c0,9.42,4.71,15.56,11.9,15.56C307.12,92,312,85.7,312,76.4c0-9.67-4.71-15.62-12-15.62C293.05,60.78,288.34,67,288.34,76.46Z" fill="#eece69"/>
            <path d="M345.44,75.41c1.18,3.6,2.67,8.8,3.66,12.83h.12c1.18-4,2.67-9.24,3.84-12.83L360,54.76h13.58V98h-8.37V76.9c0-4.22.06-10.91.19-15.87h-.12c-1.24,4.15-3.22,10.35-4.22,13.51L352.69,98h-7.81l-8.06-23.25c-.68-1.92-3.29-10.35-4.22-13.76h-.12c.12,5,.19,11.66.19,15.87V98h-8V54.76h14Z" fill="#eece69"/>
            <path d="M420.52,76.22c0,13.83-8.37,22.57-21.26,22.57s-21-8.62-21-22.32c0-14.32,7.94-22.44,21.51-22.44C412.46,54,420.52,62.51,420.52,76.22Zm-32.92.25c0,9.42,4.71,15.56,11.9,15.56,6.88,0,11.72-6.32,11.72-15.62,0-9.67-4.71-15.62-12-15.62C392.31,60.78,387.6,67,387.6,76.46Z" fill="#eece69"/>
            <path d="M425.17,54.76H437.7c10.66,0,17.73,2.29,17.73,11.35,0,5.7-3.41,9.11-9.05,10.23v.12c3,.81,4.15,2.54,5.52,5.77L458.59,98H449l-4.84-12.28c-1.8-4.53-2.6-5.7-7.94-5.7h-2.29V98h-8.74Zm8.74,18.6h2.54c6.88,0,10-1.74,10-6.08,0-4.71-3.72-5.7-10-5.7h-2.54Z" fill="#eece69"/>
            <path d="M463.73,54.76h8.74V98h-8.74Z" fill="#eece69"/>
          </g>
          <rect id="bouten1" x="186.21" y="40.04" width="7.07" height="7.07" rx="2" ry="2" transform="translate(24.76 146.93) rotate(-45)" fill="#eece69"/>
          <rect id="bouten2" x="222.64" y="40.04" width="7.07" height="7.07" rx="2" ry="2" transform="translate(35.43 172.69) rotate(-45)" fill="#eece69"/>
        </g>
        <g id="circle">
          <polygon id="circleOuter3" points="72.45 0 121.79 16.03 149.28 60.02 142.06 111.39 103.51 146.11 51.66 147.92 10.79 115.98 0 65.24 24.35 19.43 72.45 0" fill="#eece69"/>
          <polygon id="circleOuter2" points="126.83 42.94 136.15 83.31 117.34 120.23 79.2 136.43 39.57 124.31 17 89.56 22.05 48.43 52.36 20.17 93.74 18 126.83 42.94" fill="#fff"/>
          <polygon id="circleOuter1" points="121.26 64.89 117.39 96.39 94.18 118.04 62.48 119.7 37.14 100.6 30 69.68 44.41 41.4 73.62 29 103.97 38.28 121.26 64.89" fill="#f2f2f2"/>
          <polygon id="circleStripeBG" points="107.76 55.16 113.42 79.7 101.99 102.14 78.8 111.98 54.72 104.62 41 83.49 44.07 58.49 62.49 41.32 87.64 40 107.76 55.16" fill="#eece69"/>
          <g id="circleStripe">
            <polygon points="89.22 104.3 89.72 103.85 89.08 104.31 89.22 104.3" fill="#eece69"/>
            <polygon points="81.29 102.98 105.58 85.12 106.53 77.35 77.92 98.39 68.39 105.39 78.73 104.85 81.29 102.98" fill="#eece69"/>
            <polygon points="78.73 104.85 89.08 104.31 89.72 103.85 105.04 89.56 105.58 85.12 81.29 102.98 78.73 104.85" fill="#fff"/>
            <polygon points="107.49 69.58 107.67 68.1 105.16 64.23 71.17 89.22 58.49 98.54 63.23 102.12 74.54 93.8 107.49 69.58" fill="#eece69"/>
            <polygon points="106.53 77.35 107.49 69.58 74.54 93.8 63.23 102.12 67.64 105.43 68.39 105.39 77.92 98.39 106.53 77.35" fill="#fff"/>
            <polygon points="102.05 59.45 98.95 54.67 64.43 80.05 49.97 90.67 50.37 92.42 53.74 94.97 67.8 84.63 102.05 59.45" fill="#eece69"/>
            <polygon points="105.16 64.23 102.05 59.45 67.8 84.63 53.74 94.97 58.49 98.54 71.17 89.22 105.16 64.23" fill="#fff"/>
            <polygon points="95.78 49.94 88.99 47.86 57.69 70.87 47.18 78.6 48.57 84.64 61.06 75.46 95.78 49.94" fill="#eece69"/>
            <polygon points="98.95 54.67 95.9 49.97 95.78 49.94 61.06 75.46 48.57 84.64 49.97 90.67 64.43 80.05 98.95 54.67" fill="#fff"/>
            <polygon points="82.2 45.78 75.41 43.71 50.94 61.7 50.12 62.3 45.51 71.36 45.78 72.56 54.31 66.29 82.2 45.78" fill="#eece69"/>
            <polygon points="82.2 45.78 54.31 66.29 45.78 72.56 47.18 78.6 57.69 70.87 88.99 47.86 82.2 45.78" fill="#fff"/>
            <polygon points="75.41 43.71 75.22 43.65 55.32 52.1 50.12 62.3 50.94 61.7 75.41 43.71" fill="#fff"/>
          </g>
        </g>
      </g>
    </g>
  </g>
</svg>
