<?xml version="1.0" encoding="utf-8"?><svg xmlns="http://www.w3.org/2000/svg" xmlns:xlink="http://www.w3.org/1999/xlink"><symbol viewBox="0 0 36 36" id="add-text-line"><title>add-text-line</title><path class="aclr-i-outline aclr-i-outline-path-1" d="M31 21H13a1 1 0 0 0 0 2h18a1 1 0 0 0 0-2z"/><path class="aclr-i-outline aclr-i-outline-path-2" d="M12 16a1 1 0 0 0 1 1h18a1 1 0 0 0 0-2H13a1 1 0 0 0-1 1z"/><path class="aclr-i-outline aclr-i-outline-path-3" d="M27 27H13a1 1 0 0 0 0 2h14a1 1 0 0 0 0-2z"/><path class="aclr-i-outline aclr-i-outline-path-4" d="M15.89 9a1 1 0 0 0-1-1H10V3.21a1 1 0 0 0-2 0V8H2.89a1 1 0 0 0 0 2H8v5.21a1 1 0 0 0 2 0V10h4.89a1 1 0 0 0 1-1z"/><path fill="none" d="M0 0h36v36H0z"/></symbol><symbol viewBox="0 0 36 36" id="balance-line"><title>balance-line</title><path d="M24 33H12a1 1 0 0 1 0-2h12a1 1 0 0 1 0 2z" class="bclr-i-outline bclr-i-outline-path-1"/><path class="bclr-i-outline bclr-i-outline-path-2" d="M17 9h2v22.5h-2z"/><path d="M28 7H8a1 1 0 0 1 0-2h20a1 1 0 0 1 0 2z" class="bclr-i-outline bclr-i-outline-path-3"/><path d="M26.93 24.79a7.23 7.23 0 0 1-5.81-2.89l-.6-.8 1.59-1.21.6.8a5.28 5.28 0 0 0 8.42 0l.6-.8 1.59 1.21-.6.8a7.23 7.23 0 0 1-5.79 2.89z" class="bclr-i-outline bclr-i-outline-path-4"/><path d="M30.51 19.25a.8.8 0 0 1-.73-.48l-2.85-6.57-2.85 6.57a.8.8 0 0 1-1.47-.64l3.59-8.26a.83.83 0 0 1 1.47 0l3.58 8.26a.8.8 0 0 1-.73 1.12z" class="bclr-i-outline bclr-i-outline-path-5"/><path d="M9.68 24.79a7.23 7.23 0 0 1-5.8-2.89l-.6-.8 1.58-1.2.6.8a5.28 5.28 0 0 0 8.42 0l.6-.8 1.59 1.21-.6.8a7.23 7.23 0 0 1-5.79 2.88z" class="bclr-i-outline bclr-i-outline-path-6"/><path d="M13.26 19.25a.8.8 0 0 1-.73-.48L9.68 12.2l-2.84 6.57a.8.8 0 0 1-1.47-.64l3.58-8.26a.83.83 0 0 1 1.47 0L14 18.13a.8.8 0 0 1-.73 1.12z" class="bclr-i-outline bclr-i-outline-path-7"/><path fill="none" d="M0 0h36v36H0z"/></symbol><symbol viewBox="0 0 36 36" id="block-line"><title>block-line</title><path class="cclr-i-outline cclr-i-outline-path-1" d="M31.42 9.09l-13-6a1 1 0 0 0-.84 0l-13 6A1 1 0 0 0 4 10v17a1 1 0 0 0 .58.91l13 6a1 1 0 0 0 .84 0l13-6A1 1 0 0 0 32 27V10a1 1 0 0 0-.58-.91zM18 5.1L28.61 10 18 14.9 7.39 10zM6 11.56l11 5.08v14.8L6 26.36zm13 19.88v-14.8l11-5.08v14.8z"/><path fill="none" d="M0 0h36v36H0z"/></symbol><symbol viewBox="0 0 36 36" id="bolt-line"><title>bolt-line</title><path d="M10.52 34h-3a1 1 0 0 1-.88-1.44L12.55 21H6a1 1 0 0 1-.85-1.54l10.68-17a1 1 0 0 1 .81-.46h13.43a1 1 0 0 1 .77 1.69L21.78 14h5.38a1 1 0 0 1 .73 1.66l-16.63 18a1 1 0 0 1-.74.34zm-1.34-2h.91l14.77-16h-5.27a1 1 0 0 1-.77-1.69L27.88 4H17.19L7.77 19h6.43a1 1 0 0 1 .88 1.44z" class="dclr-i-outline dclr-i-outline-path-1"/><path fill="none" d="M0 0h36v36H0z"/></symbol><symbol viewBox="0 0 36 36" id="book-solid"><title>book-solid</title><path class="eclr-i-solid eclr-i-solid-path-1" d="M10 5.2h18v1.55H10z"/><path class="eclr-i-solid eclr-i-solid-path-2" d="M29 8H9.86A1.89 1.89 0 0 1 8 6a2 2 0 0 1 1.86-2H29a1 1 0 1 0 0-2H9.86A4 4 0 0 0 6 6a4.14 4.14 0 0 0 0 .49 1 1 0 0 0 0 .24V30a4 4 0 0 0 3.86 4H29a1 1 0 0 0 1-1V9.25v-.09-.09A1.07 1.07 0 0 0 29 8z"/><path fill="none" d="M0 0h36v36H0z"/></symbol><symbol viewBox="0 0 36 36" id="calendar-outline-badged"><title>calendar-outline-badged</title><path class="fclr-i-outline--badged fclr-i-outline-path-1--badged" d="M32 13.22V30H4V8h3V6H3.75A1.78 1.78 0 0 0 2 7.81v22.38A1.78 1.78 0 0 0 3.75 32h28.5A1.78 1.78 0 0 0 34 30.19V12.34a7.45 7.45 0 0 1-2 .88z"/><path class="fclr-i-outline--badged fclr-i-outline-path-2--badged" d="M8 14h2v2H8z"/><path class="fclr-i-outline--badged fclr-i-outline-path-3--badged" d="M14 14h2v2h-2z"/><path class="fclr-i-outline--badged fclr-i-outline-path-4--badged" d="M20 14h2v2h-2z"/><path class="fclr-i-outline--badged fclr-i-outline-path-5--badged" d="M26 14h2v2h-2z"/><path class="fclr-i-outline--badged fclr-i-outline-path-6--badged" d="M8 19h2v2H8z"/><path class="fclr-i-outline--badged fclr-i-outline-path-7--badged" d="M14 19h2v2h-2z"/><path class="fclr-i-outline--badged fclr-i-outline-path-8--badged" d="M20 19h2v2h-2z"/><path class="fclr-i-outline--badged fclr-i-outline-path-9--badged" d="M26 19h2v2h-2z"/><path class="fclr-i-outline--badged fclr-i-outline-path-10--badged" d="M8 24h2v2H8z"/><path class="fclr-i-outline--badged fclr-i-outline-path-11--badged" d="M14 24h2v2h-2z"/><path class="fclr-i-outline--badged fclr-i-outline-path-12--badged" d="M20 24h2v2h-2z"/><path class="fclr-i-outline--badged fclr-i-outline-path-13--badged" d="M26 24h2v2h-2z"/><path class="fclr-i-outline--badged fclr-i-outline-path-14--badged" d="M10 10a1 1 0 0 0 1-1V3a1 1 0 0 0-2 0v6a1 1 0 0 0 1 1z"/><path class="fclr-i-outline--badged fclr-i-outline-path-15--badged" d="M22.5 6H13v2h9.78a7.49 7.49 0 0 1-.28-2z"/><circle class="fclr-i-outline--badged fclr-i-outline-path-16--badged fclr-i-badge" cx="30" cy="6" r="5"/><path fill="none" d="M0 0h36v36H0z"/></symbol><symbol viewBox="0 0 36 36" id="computer-line"><title>computer-line</title><path class="gclr-i-outline gclr-i-outline-path-1" d="M9.6 22.88V10.6h14.8L25.98 9H8v13.88h1.6z"/><path d="M6 7h24v16h2V6.5A1.5 1.5 0 0 0 30.5 5h-25A1.5 1.5 0 0 0 4 6.5V23h2z" class="gclr-i-outline gclr-i-outline-path-2"/><path d="M1 25v3.4A2.6 2.6 0 0 0 3.6 31h28.74a2.6 2.6 0 0 0 2.6-2.6V25zm32 3.4a.6.6 0 0 1-.6.6H3.56a.6.6 0 0 1-.6-.6v-1.87h9.95a1.64 1.64 0 0 0 1.5 1h7.13a1.64 1.64 0 0 0 1.5-1H33z" class="gclr-i-outline gclr-i-outline-path-3"/><path fill="none" d="M0 0h36v36H0z"/></symbol><symbol viewBox="0 0 299.27 229.04" id="dekomori-logo-bottomType"><title>dekomori-logo-bottomType</title><g id="レイヤー_2" data-name="レイヤー 2"><g id="LOGO"><g id="bottom-type"><g id="typography" fill="#eece69"><path d="M11.84 185c14.63 0 25.54 5.83 25.54 21.82 0 15.13-11.22 21.45-25.54 21.45H0V185zm-3.1 36.64H11c9.61 0 17.3-3.78 17.3-14.88 0-11.66-7.69-14.94-17.3-14.94H8.74zM40.61 185h25.6v7.19h-17v10.42h15.64v7H49.23V221H66.4v7.25H40.61zM80.41 228.3h-8.74V185h8.74v18.85h.12c1.74-2.23 5.83-7.32 7.5-9.3l8.13-9.55H107l-18.28 20.23 20 23.06H97l-9.55-11.66c-1.61-1.92-4.59-5.89-6.88-9.18h-.12z"/><path d="M148.05 206.47c0 13.83-8.37 22.57-21.26 22.57s-21-8.62-21-22.32c0-14.32 7.94-22.44 21.51-22.44 12.7 0 20.75 8.49 20.75 22.19zm-32.92.25c0 9.42 4.71 15.56 11.9 15.56 6.88 0 11.72-6.32 11.72-15.62 0-9.67-4.71-15.62-12-15.62-6.91-.04-11.62 6.2-11.62 15.68zM172.23 205.67c1.18 3.6 2.67 8.8 3.66 12.83h.11c1.18-4 2.67-9.24 3.84-12.83L186.8 185h13.58v43.3H192v-21.14c0-4.22.06-10.91.19-15.87h-.12c-1.24 4.15-3.22 10.35-4.22 13.51l-8.37 23.5h-7.81l-8.06-23.3c-.68-1.92-3.29-10.35-4.22-13.76h-.12c.12 5 .19 11.66.19 15.87v21.19h-8V185h14zM247.31 206.47c0 13.83-8.37 22.57-21.26 22.57s-21-8.62-21-22.32c0-14.32 7.94-22.44 21.51-22.44 12.69 0 20.75 8.49 20.75 22.19zm-32.92.25c0 9.42 4.71 15.56 11.9 15.56 6.88 0 11.72-6.32 11.72-15.62C238 197 233.3 191 226 191c-6.9 0-11.61 6.24-11.61 15.72zM252 185h12.52c10.66 0 17.73 2.29 17.73 11.35 0 5.7-3.41 9.11-9.05 10.23v.12c3 .81 4.15 2.54 5.52 5.77l6.7 15.81h-9.61L270.94 216c-1.8-4.53-2.6-5.7-7.94-5.7h-2.29v18H252zm8.74 18.6h2.54c6.88 0 10-1.74 10-6.08 0-4.71-3.72-5.7-10-5.7h-2.54zM290.53 185h8.74v43.3h-8.74z"/><rect id="bouten1" x="13" y="170.3" width="7.07" height="7.07" rx="2" ry="2" transform="rotate(-45 16.537 173.84)"/><rect id="bouten2" x="49.43" y="170.3" width="7.07" height="7.07" rx="2" ry="2" transform="rotate(-45 52.967 173.84)"/></g><g id="circle"><path id="circleOuter3" fill="#eece69" d="M147.45 0l49.33 16.03 27.49 43.99-7.22 51.37-38.55 34.72-51.84 1.81-40.88-31.94L75 65.24l24.35-45.81L147.45 0z"/><path id="circleOuter2" fill="#fff" d="M201.83 42.94l9.32 40.37-18.81 36.92-38.15 16.2-39.63-12.12L92 89.56l5.05-41.13 30.3-28.26L168.73 18l33.1 24.94z"/><path id="circleOuter1" fill="#f2f2f2" d="M196.25 64.89l-3.87 31.5-23.21 21.65-31.69 1.66-25.35-19.1L105 69.68l14.4-28.28L148.62 29l30.35 9.28 17.28 26.61z"/><path id="circleStripeBG" fill="#eece69" d="M182.75 55.16l5.67 24.54-11.44 22.44-23.18 9.84-24.09-7.36L116 83.49l3.06-25 18.43-17.17L162.64 40l20.11 15.16z"/><g id="circleStripe"><path fill="#eece69" d="M164.22 104.3l.49-.45-.63.46.14-.01zM156.28 102.98l24.3-17.86.95-7.77-28.62 21.04-9.53 7 10.35-.54 2.55-1.87z"/><path fill="#fff" d="M153.73 104.85l10.35-.54.63-.46 15.32-14.29.55-4.44-24.3 17.86-2.55 1.87z"/><path fill="#eece69" d="M182.48 69.58l.18-1.48-2.51-3.87-33.98 24.99-12.69 9.32 4.75 3.58 11.31-8.32 32.94-24.22z"/><path fill="#fff" d="M181.53 77.35l.95-7.77-32.94 24.22-11.31 8.32 4.4 3.31.75-.04 9.53-7 28.62-21.04z"/><path fill="#eece69" d="M177.05 59.45l-3.11-4.78-34.52 25.38-14.46 10.62.41 1.75 3.37 2.55 14.05-10.34 34.26-25.18z"/><path fill="#fff" d="M180.15 64.23l-3.1-4.78-34.26 25.18-14.05 10.34 4.74 3.57 12.69-9.32 33.98-24.99z"/><path fill="#eece69" d="M170.77 49.94l-6.79-2.08-31.3 23.01-10.51 7.73 1.4 6.04 12.48-9.18 34.72-25.52z"/><path fill="#fff" d="M173.94 54.67l-3.05-4.7-.12-.03-34.72 25.52-12.48 9.18 1.39 6.03 14.46-10.62 34.52-25.38z"/><path fill="#eece69" d="M157.2 45.78l-6.79-2.07-24.47 17.99-.82.6-4.62 9.06.28 1.2 8.53-6.27 27.89-20.51z"/><path fill="#fff" d="M157.2 45.78l-27.89 20.51-8.53 6.27 1.39 6.04 10.51-7.73 31.3-23.01-6.78-2.08zM150.41 43.71l-.19-.06-19.9 8.45-5.2 10.2.82-.6 24.47-17.99z"/></g></g></g></g></g></symbol><symbol viewBox="0 0 472.48 147.92" id="dekomori-logo-sideType"><title>dekomori-logo-sideType</title><g id="レイヤー_2" data-name="レイヤー 2"><g id="LOGO"><g id="side-type"><g id="typography" fill="#eece69"><path d="M185 54.76c14.63 0 25.54 5.83 25.54 21.82C210.59 91.71 199.37 98 185 98h-11.79V54.76zm-3.1 36.64h2.29c9.61 0 17.3-3.78 17.3-14.88 0-11.66-7.69-14.94-17.3-14.94h-2.29zM213.82 54.76h25.6V62h-17v10.37h15.62v7h-15.61v11.41h17.17V98h-25.78zM253.62 98h-8.74V54.76h8.74v18.85h.12c1.74-2.23 5.83-7.32 7.5-9.3l8.12-9.55h10.85L261.93 75 282 98h-11.83l-9.55-11.66c-1.61-1.92-4.59-5.89-6.88-9.18h-.12z"/><path d="M321.26 76.22c0 13.83-8.37 22.57-21.26 22.57s-21-8.62-21-22.32C279 62.14 286.91 54 300.49 54c12.71 0 20.77 8.51 20.77 22.22zm-32.92.25c0 9.42 4.71 15.56 11.9 15.56C307.12 92 312 85.7 312 76.4c0-9.67-4.71-15.62-12-15.62-6.95 0-11.66 6.22-11.66 15.68zM345.44 75.41c1.18 3.6 2.67 8.8 3.66 12.83h.12c1.18-4 2.67-9.24 3.84-12.83L360 54.76h13.58V98h-8.37V76.9c0-4.22.06-10.91.19-15.87h-.12c-1.24 4.15-3.22 10.35-4.22 13.51L352.69 98h-7.81l-8.06-23.25c-.68-1.92-3.29-10.35-4.22-13.76h-.12c.12 5 .19 11.66.19 15.87V98h-8V54.76h14zM420.52 76.22c0 13.83-8.37 22.57-21.26 22.57s-21-8.62-21-22.32c0-14.32 7.94-22.44 21.51-22.44 12.69-.03 20.75 8.48 20.75 22.19zm-32.92.25c0 9.42 4.71 15.56 11.9 15.56 6.88 0 11.72-6.32 11.72-15.62 0-9.67-4.71-15.62-12-15.62-6.91-.01-11.62 6.21-11.62 15.67zM425.17 54.76h12.53c10.66 0 17.73 2.29 17.73 11.35 0 5.7-3.41 9.11-9.05 10.23v.12c3 .81 4.15 2.54 5.52 5.77L458.59 98H449l-4.84-12.28c-1.8-4.53-2.6-5.7-7.94-5.7h-2.29V98h-8.74zm8.74 18.6h2.54c6.88 0 10-1.74 10-6.08 0-4.71-3.72-5.7-10-5.7h-2.54zM463.73 54.76h8.74V98h-8.74z"/><rect id="bouten1" x="186.21" y="40.04" width="7.07" height="7.07" rx="2" ry="2" transform="rotate(-45 189.74 43.577)"/><rect id="bouten2" x="222.64" y="40.04" width="7.07" height="7.07" rx="2" ry="2" transform="rotate(-45 226.17 43.577)"/></g><g id="circle"><path id="circleOuter3" fill="#eece69" d="M72.45 0l49.34 16.03 27.49 43.99-7.22 51.37-38.55 34.72-51.85 1.81-40.87-31.94L0 65.24l24.35-45.81L72.45 0z"/><path id="circleOuter2" fill="#fff" d="M126.83 42.94l9.32 40.37-18.81 36.92-38.14 16.2-39.63-12.12L17 89.56l5.05-41.13 30.31-28.26L93.74 18l33.09 24.94z"/><path id="circleOuter1" fill="#f2f2f2" d="M121.26 64.89l-3.87 31.5-23.21 21.65-31.7 1.66-25.34-19.1L30 69.68 44.41 41.4 73.62 29l30.35 9.28 17.29 26.61z"/><path id="circleStripeBG" fill="#eece69" d="M107.76 55.16l5.66 24.54-11.43 22.44-23.19 9.84-24.08-7.36L41 83.49l3.07-25 18.42-17.17L87.64 40l20.12 15.16z"/><g id="circleStripe"><path fill="#eece69" d="M89.22 104.3l.5-.45-.64.46.14-.01zM81.29 102.98l24.29-17.86.95-7.77-28.61 21.04-9.53 7 10.34-.54 2.56-1.87z"/><path fill="#fff" d="M78.73 104.85l10.35-.54.64-.46 15.32-14.29.54-4.44-24.29 17.86-2.56 1.87z"/><path fill="#eece69" d="M107.49 69.58l.18-1.48-2.51-3.87-33.99 24.99-12.68 9.32 4.74 3.58 11.31-8.32 32.95-24.22z"/><path fill="#fff" d="M106.53 77.35l.96-7.77L74.54 93.8l-11.31 8.32 4.41 3.31.75-.04 9.53-7 28.61-21.04z"/><path fill="#eece69" d="M102.05 59.45l-3.1-4.78-34.52 25.38-14.46 10.62.4 1.75 3.37 2.55L67.8 84.63l34.25-25.18z"/><path fill="#fff" d="M105.16 64.23l-3.11-4.78L67.8 84.63 53.74 94.97l4.75 3.57 12.68-9.32 33.99-24.99z"/><path fill="#eece69" d="M95.78 49.94l-6.79-2.08-31.3 23.01-10.51 7.73 1.39 6.04 12.49-9.18 34.72-25.52z"/><path fill="#fff" d="M98.95 54.67l-3.05-4.7-.12-.03-34.72 25.52-12.49 9.18 1.4 6.03 14.46-10.62 34.52-25.38z"/><path fill="#eece69" d="M82.2 45.78l-6.79-2.07L50.94 61.7l-.82.6-4.61 9.06.27 1.2 8.53-6.27L82.2 45.78z"/><path fill="#fff" d="M82.2 45.78L54.31 66.29l-8.53 6.27 1.4 6.04 10.51-7.73 31.3-23.01-6.79-2.08zM75.41 43.71l-.19-.06-19.9 8.45-5.2 10.2.82-.6 24.47-17.99z"/></g></g></g></g></g></symbol><symbol viewBox="0 0 149.28 147.92" id="dekomori-logo-symbol"><title>dekomori-logo-symbol</title><g id="レイヤー_2" data-name="レイヤー 2"><g id="LOGO"><g id="circle"><path id="circleOuter3" fill="#eece69" d="M72.45 0l49.34 16.03 27.49 43.99-7.22 51.37-38.55 34.72-51.85 1.81-40.87-31.94L0 65.24l24.35-45.81L72.45 0z"/><path id="circleOuter2" fill="#fff" d="M126.83 42.94l9.32 40.37-18.81 36.92-38.14 16.2-39.63-12.12L17 89.56l5.05-41.13 30.31-28.26L93.74 18l33.09 24.94z"/><path id="circleOuter1" fill="#f2f2f2" d="M121.26 64.89l-3.87 31.5-23.21 21.65-31.7 1.66-25.34-19.1L30 69.68 44.41 41.4 73.62 29l30.35 9.28 17.29 26.61z"/><path id="circleStripeBG" fill="#eece69" d="M107.76 55.16l5.66 24.54-11.43 22.44-23.19 9.84-24.08-7.36L41 83.49l3.07-25 18.42-17.17L87.64 40l20.12 15.16z"/><g id="circleStripe"><path fill="#eece69" d="M89.22 104.3l.5-.45-.64.46.14-.01zM81.29 102.98l24.29-17.86.95-7.77-28.61 21.04-9.53 7 10.34-.54 2.56-1.87z"/><path fill="#fff" d="M78.73 104.85l10.35-.54.64-.46 15.32-14.29.54-4.44-24.29 17.86-2.56 1.87z"/><path fill="#eece69" d="M107.49 69.58l.18-1.48-2.51-3.87-33.99 24.99-12.68 9.32 4.74 3.58 11.31-8.32 32.95-24.22z"/><path fill="#fff" d="M106.53 77.35l.96-7.77L74.54 93.8l-11.31 8.32 4.41 3.31.75-.04 9.53-7 28.61-21.04z"/><path fill="#eece69" d="M102.05 59.45l-3.1-4.78-34.52 25.38-14.46 10.62.4 1.75 3.37 2.55L67.8 84.63l34.25-25.18z"/><path fill="#fff" d="M105.16 64.23l-3.11-4.78L67.8 84.63 53.74 94.97l4.75 3.57 12.68-9.32 33.99-24.99z"/><path fill="#eece69" d="M95.78 49.94l-6.79-2.08-31.3 23.01-10.51 7.73 1.39 6.04 12.49-9.18 34.72-25.52z"/><path fill="#fff" d="M98.95 54.67l-3.05-4.7-.12-.03-34.72 25.52-12.49 9.18 1.4 6.03 14.46-10.62 34.52-25.38z"/><path fill="#eece69" d="M82.2 45.78l-6.79-2.07L50.94 61.7l-.82.6-4.61 9.06.27 1.2 8.53-6.27L82.2 45.78z"/><path fill="#fff" d="M88.99 47.86l-6.79-2.08-27.89 20.51-8.53 6.27 1.4 6.04 10.51-7.73 31.3-23.01zM75.41 43.71l-.19-.06-19.9 8.45-5.2 10.2.82-.6 24.47-17.99z"/></g></g></g></g></symbol><symbol viewBox="0 0 299.27 59.38" id="dekomori-logo-type"><title>dekomori-logo-type</title><g id="レイヤー_2" data-name="レイヤー 2"><g id="LOGO"><g id="typography" fill="#eece69"><path d="M11.84 15.36c14.63 0 25.54 5.83 25.54 21.82 0 15.13-11.22 21.45-25.54 21.45H0V15.36zM8.74 52H11c9.61 0 17.3-3.78 17.3-14.88 0-11.66-7.69-14.94-17.3-14.94H8.74zM40.61 15.36h25.6v7.19h-17V33h15.64v7H49.23v11.38H66.4v7.25H40.61zM80.41 58.63h-8.74V15.36h8.74v18.85h.12c1.74-2.23 5.83-7.32 7.5-9.3l8.12-9.55H107L88.72 35.57l20 23.06H97L87.42 47c-1.61-1.92-4.59-5.89-6.88-9.18h-.12z"/><path d="M148.05 36.81c0 13.83-8.37 22.57-21.26 22.57s-21-8.62-21-22.32c0-14.32 7.94-22.44 21.51-22.44 12.7 0 20.75 8.49 20.75 22.19zm-32.92.25c0 9.42 4.71 15.56 11.9 15.56 6.88 0 11.72-6.32 11.72-15.62 0-9.67-4.71-15.62-12-15.62-6.91-.01-11.62 6.19-11.62 15.68zM172.23 36c1.18 3.6 2.67 8.8 3.66 12.83h.11c1.18-4 2.67-9.24 3.84-12.83l6.94-20.64h13.58v43.27H192V37.49c0-4.22.06-10.91.19-15.87h-.12c-1.24 4.15-3.22 10.35-4.22 13.51l-8.37 23.5h-7.81l-8.06-23.25c-.68-1.92-3.29-10.35-4.22-13.76h-.12c.12 5 .19 11.66.19 15.87v21.14h-8V15.36h14zM247.31 36.81c0 13.83-8.37 22.57-21.26 22.57s-21-8.62-21-22.32c0-14.32 7.94-22.44 21.51-22.44 12.69 0 20.75 8.49 20.75 22.19zm-32.92.25c0 9.42 4.71 15.56 11.9 15.56C233.18 52.62 238 46.3 238 37c0-9.67-4.71-15.62-12-15.62-6.9-.01-11.61 6.19-11.61 15.68zM252 15.36h12.52c10.66 0 17.73 2.29 17.73 11.35 0 5.7-3.41 9.11-9.05 10.23v.12c3 .81 4.15 2.54 5.52 5.77l6.7 15.81h-9.61l-4.83-12.28c-1.8-4.53-2.6-5.7-7.94-5.7h-2.29v18H252zM260.71 34h2.54c6.88 0 10-1.74 10-6.08 0-4.71-3.72-5.7-10-5.7h-2.54zM290.53 15.36h8.74v43.27h-8.74z"/><rect id="bouten1" x="13" y=".64" width="7.07" height="7.07" rx="2" ry="2" transform="rotate(-45 16.529 4.174)"/><rect id="bouten2" x="49.43" y=".64" width="7.07" height="7.07" rx="2" ry="2" transform="rotate(-45 52.959 4.174)"/></g></g></g></symbol><symbol viewBox="0 0 36 36" id="fast-forward-line"><title>fast-forward-line</title><path class="lclr-i-outline lclr-i-outline-path-1" d="M17.77 31.92a2 2 0 0 1-.86-.2 1.81 1.81 0 0 1-.91-1.79v-6.7L5.24 31.5a1.94 1.94 0 0 1-2.06.22 2 2 0 0 1-1.11-1.79v-24a2 2 0 0 1 1.11-1.81 1.93 1.93 0 0 1 2.06.22L16 12.61v-6.7a1.81 1.81 0 0 1 .91-1.79 1.93 1.93 0 0 1 2.09.22l15.32 12a2 2 0 0 1 0 3.15L19 31.5a2 2 0 0 1-1.23.42zm0-12.8v10.81l15.26-12-15.32-12 .06 10.81L4 5.91v24z"/><path fill="none" d="M0 0h36v36H0z"/></symbol><symbol viewBox="0 0 24 24" id="github"><title id="simpleicons-github-icon">GitHub icon</title><path d="M12 .297c-6.63 0-12 5.373-12 12 0 5.303 3.438 9.8 8.205 11.385.6.113.82-.258.82-.577 0-.285-.01-1.04-.015-2.04-3.338.724-4.042-1.61-4.042-1.61C4.422 18.07 3.633 17.7 3.633 17.7c-1.087-.744.084-.729.084-.729 1.205.084 1.838 1.236 1.838 1.236 1.07 1.835 2.809 1.305 3.495.998.108-.776.417-1.305.76-1.605-2.665-.3-5.466-1.332-5.466-5.93 0-1.31.465-2.38 1.235-3.22-.135-.303-.54-1.523.105-3.176 0 0 1.005-.322 3.3 1.23.96-.267 1.98-.399 3-.405 1.02.006 2.04.138 3 .405 2.28-1.552 3.285-1.23 3.285-1.23.645 1.653.24 2.873.12 3.176.765.84 1.23 1.91 1.23 3.22 0 4.61-2.805 5.625-5.475 5.92.42.36.81 1.096.81 2.22 0 1.606-.015 2.896-.015 3.286 0 .315.21.69.825.57C20.565 22.092 24 17.592 24 12.297c0-6.627-5.373-12-12-12"/></symbol><symbol viewBox="0 0 36 36" id="grid-view-line"><title>grid-view-line</title><path class="nclr-i-outline nclr-i-outline-path-1" d="M14 4H6a2 2 0 0 0-2 2v8a2 2 0 0 0 2 2h8a2 2 0 0 0 2-2V6a2 2 0 0 0-2-2zM6 14V6h8v8z"/><path class="nclr-i-outline nclr-i-outline-path-2" d="M30 4h-8a2 2 0 0 0-2 2v8a2 2 0 0 0 2 2h8a2 2 0 0 0 2-2V6a2 2 0 0 0-2-2zm-8 10V6h8v8z"/><path class="nclr-i-outline nclr-i-outline-path-3" d="M14 20H6a2 2 0 0 0-2 2v8a2 2 0 0 0 2 2h8a2 2 0 0 0 2-2v-8a2 2 0 0 0-2-2zM6 30v-8h8v8z"/><path class="nclr-i-outline nclr-i-outline-path-4" d="M30 20h-8a2 2 0 0 0-2 2v8a2 2 0 0 0 2 2h8a2 2 0 0 0 2-2v-8a2 2 0 0 0-2-2zm-8 10v-8h8v8z"/><path fill="none" d="M0 0h36v36H0z"/></symbol><symbol viewBox="0 0 36 36" id="list-outline-badged"><title>list-outline-badged</title><path class="oclr-i-outline--badged oclr-i-outline-path-1--badged" d="M15 12h9v2h-9z"/><path class="oclr-i-outline--badged oclr-i-outline-path-2--badged" d="M15 16h9v2h-9z"/><path class="oclr-i-outline--badged oclr-i-outline-path-3--badged" d="M15 20h9v2h-9z"/><path class="oclr-i-outline--badged oclr-i-outline-path-4--badged" d="M15 24h9v2h-9z"/><path class="oclr-i-outline--badged oclr-i-outline-path-5--badged" d="M11 8h2v2h-2z"/><path class="oclr-i-outline--badged oclr-i-outline-path-6--badged" d="M11 12h2v2h-2z"/><path class="oclr-i-outline--badged oclr-i-outline-path-7--badged" d="M11 16h2v2h-2z"/><path class="oclr-i-outline--badged oclr-i-outline-path-8--badged" d="M11 20h2v2h-2z"/><path class="oclr-i-outline--badged oclr-i-outline-path-9--badged" d="M11 24h2v2h-2z"/><path d="M15 8v2h8.66a7.45 7.45 0 0 1-.89-2z" class="oclr-i-outline--badged oclr-i-outline-path-10--badged"/><path d="M28 13.22V32H8V4h14.78a7.45 7.45 0 0 1 .88-2H8a2 2 0 0 0-2 2v28a2 2 0 0 0 2 2h20a2 2 0 0 0 2-2V13.5a7.49 7.49 0 0 1-2-.28z" class="oclr-i-outline--badged oclr-i-outline-path-11--badged"/><circle cx="30" cy="6" r="5" class="oclr-i-outline--badged oclr-i-outline-path-12--badged oclr-i-badge"/><path fill="none" d="M0 0h36v36H0z"/></symbol><symbol viewBox="0 0 36 36" id="map-line"><title>map-line</title><path class="pclr-i-outline pclr-i-outline-path-1" d="M33.59 6.19A1 1 0 0 0 32.7 6l-9.61 3-9.63-4.89a1 1 0 0 0-.84 0l-10 4.09a1 1 0 0 0-.62.93v20.48a1 1 0 0 0 1.38.92L13 26.58l9.59 4.92a1 1 0 0 0 .46.11 1 1 0 0 0 .3 0l10-3.12a1 1 0 0 0 .7-1V7a1 1 0 0 0-.46-.81zM32 26.75l-8.32 2.6v-2.29h-1.6v2l-8.4-4.31v-1.69h-1.6v1.72L4 28.11V9.79l8.08-3.33v2.35h1.6V6.47l8.4 4.3v2.1h1.6V11L32 8.36z"/><path class="pclr-i-outline pclr-i-outline-path-2" d="M22.08 15.06h1.6v3.81h-1.6z"/><path class="pclr-i-outline pclr-i-outline-path-3" d="M22.08 21.06h1.6v3.81h-1.6z"/><path class="pclr-i-outline pclr-i-outline-path-4" d="M12.08 11.06h1.6v3.81h-1.6z"/><path class="pclr-i-outline pclr-i-outline-path-5" d="M12.08 17.13h1.6v3.75h-1.6z"/><path fill="none" d="M0 0h36v36H0z"/></symbol><symbol viewBox="0 0 36 36" id="network-globe-line"><title>network-globe-line</title><path d="M26.58 32h-18a1 1 0 1 0 0 2h18a1 1 0 0 0 0-2z" class="qclr-i-outline qclr-i-outline-path-1"/><path d="M17.75 2a14 14 0 0 0-14 14c0 .45 0 .89.07 1.33A14 14 0 1 0 17.75 2zm0 2a12 12 0 0 1 8.44 3.48v1A18.51 18.51 0 0 0 14 8.53a2.33 2.33 0 0 0-1.14-.61h-.25c-.12-.42-.23-.84-.32-1.27s-.14-.81-.19-1.22A11.92 11.92 0 0 1 17.75 4zm-3 5.87a17 17 0 0 1 11.17.13 16.9 16.9 0 0 1-3.11 7 2.28 2.28 0 0 0-2.58.57c-.35-.2-.7-.4-1-.63a16 16 0 0 1-4.93-5.23 2.25 2.25 0 0 0 .47-1.77zm-4-3.6c0 .21.06.43.1.64.09.44.21.87.33 1.3a2.28 2.28 0 0 0-1.1 2.25 18.32 18.32 0 0 0-4.18 3.76 12 12 0 0 1 4.86-7.95zm0 15.71a2.34 2.34 0 0 0-1.55 1.76h-.64a11.94 11.94 0 0 1-2.76-6.82l.11-.19a16.9 16.9 0 0 1 4.81-4.89 2.31 2.31 0 0 0 2.28.63 17.53 17.53 0 0 0 5.35 5.65c.41.27.83.52 1.25.76a2.32 2.32 0 0 0 .18 1.12 16.94 16.94 0 0 1-6.2 3.11A2.34 2.34 0 0 0 10.76 22zm7 6a11.92 11.92 0 0 1-5.81-1.51l.28-.06a2.34 2.34 0 0 0 1.57-1.79 18.43 18.43 0 0 0 7-3.5 2.29 2.29 0 0 0 3-.62 17.41 17.41 0 0 0 4.32.56h.53A12 12 0 0 1 17.75 28zm6.51-8.9a2.33 2.33 0 0 0-.33-1.19 18.4 18.4 0 0 0 3.39-7.37q.75.35 1.48.78a12 12 0 0 1 .42 8.2 16 16 0 0 1-4.95-.39z" class="qclr-i-outline qclr-i-outline-path-2"/><path fill="none" d="M0 0h36v36H0z"/></symbol><symbol viewBox="0 0 36 36" id="refresh-line"><title>refresh-line</title><path class="rclr-i-outline rclr-i-outline-path-1" d="M22.4 11.65a1.09 1.09 0 0 0 1.09 1.09h10.94V1.81a1.09 1.09 0 1 0-2.19 0v7.14a16.41 16.41 0 1 0 1.47 15.86 1.12 1.12 0 0 0-2.05-.9 14.18 14.18 0 1 1-1.05-13.36H23.5a1.09 1.09 0 0 0-1.1 1.1z"/><path fill="none" d="M0 0h36v36H0z"/></symbol><symbol viewBox="0 0 100 100" id="rightAngled-Isosceles-Triangle"><title>アセット 1</title><g id="レイヤー_2" data-name="レイヤー 2"><path fill="#fff" d="M0 100V0h100L0 100z" id="レイヤー_1-2" data-name="レイヤー 1"/></g></symbol><symbol viewBox="0 0 36 36" id="search-line"><title>search-line</title><path class="tclr-i-outline tclr-i-outline-path-1" d="M16.33 5.05A10.95 10.95 0 1 1 5.39 16 11 11 0 0 1 16.33 5.05m0-2.05a13 13 0 1 0 13 13 13 13 0 0 0-13-13z"/><path class="tclr-i-outline tclr-i-outline-path-2" d="M35 33.29l-7.37-7.42-1.42 1.41 7.37 7.42A1 1 0 1 0 35 33.29z"/><path fill="none" d="M0 0h36v36H0z"/></symbol><symbol viewBox="0 0 36 36" id="share-line"><title>share-line</title><path class="uclr-i-outline uclr-i-outline-path-1" d="M27.53 24a5 5 0 0 0-3.6 1.55l-12.19-6.1a4.47 4.47 0 0 0 0-2.8l12.21-6.21a5.12 5.12 0 1 0-1.07-1.7l-12.09 6.15a5 5 0 1 0 0 6.33l12.06 6.07a4.93 4.93 0 0 0-.31 1.71 5 5 0 1 0 5-5zm0-20a3 3 0 1 1-3 3 3 3 0 0 1 3-3zM7 21a3 3 0 1 1 3-3 3 3 0 0 1-3 3zm20.53 11a3 3 0 1 1 3-3 3 3 0 0 1-3 3z"/><path fill="none" d="M0 0h36v36H0z"/></symbol><symbol viewBox="0 0 36 36" id="slider-line"><title>slider-line</title><path d="M12 12.37a4 4 0 0 0-3-3.89V5a1 1 0 1 0-2 0v3.48a4 4 0 0 0 0 7.78V31a1 1 0 1 0 2 0V16.26a4 4 0 0 0 3-3.89zm-4 2a2 2 0 1 1 2-2 2 2 0 0 1-2 2.03z" class="vclr-i-outline vclr-i-outline-path-1"/><path d="M32 15.83a4 4 0 0 0-3-3.89V5a1 1 0 1 0-2 0v6.94a4 4 0 0 0 0 7.78V31a1 1 0 1 0 2 0V19.72a4 4 0 0 0 3-3.89zm-4 2a2 2 0 1 1 2-2 2 2 0 0 1-2 2.04z" class="vclr-i-outline vclr-i-outline-path-2"/><path d="M22 24.5a4 4 0 0 0-3-3.89V5a1 1 0 1 0-2 0v15.61a4 4 0 0 0 0 7.78V31a1 1 0 1 0 2 0v-2.61a4 4 0 0 0 3-3.89zm-4 2a2 2 0 1 1 2-2 2 2 0 0 1-2 2.03z" class="vclr-i-outline vclr-i-outline-path-3"/><path fill="none" d="M0 0h36v36H0z"/></symbol><symbol viewBox="0 0 36 36" id="upload-cloud-line"><title>upload-cloud-line</title><path d="M30.31 13v-.32a10.26 10.26 0 0 0-10.45-10 10.47 10.47 0 0 0-9.6 6.1A9.74 9.74 0 0 0 1.6 18.4a9.62 9.62 0 0 0 9.65 9.6H15v-2h-3.75A7.65 7.65 0 0 1 11 10.74h.67l.23-.63a8.43 8.43 0 0 1 8-5.4 8.26 8.26 0 0 1 8.45 8 7.75 7.75 0 0 1 0 .8l-.08.72.65.3A6 6 0 0 1 26.38 26H21v2h5.38a8 8 0 0 0 3.93-15z" class="wclr-i-outline wclr-i-outline-path-1"/><path d="M22.28 21.85a1 1 0 0 0 .72-1.71l-5-5-5 5a1 1 0 0 0 1.41 1.41L17 19v12.25a1 1 0 1 0 2 0V19l2.57 2.57a1 1 0 0 0 .71.28z" class="wclr-i-outline wclr-i-outline-path-2"/><path fill="none" d="M0 0h36v36H0z"/></symbol></svg>